<svg width="219" height="219" viewBox="0 0 219 219" fill="none" xmlns="http://www.w3.org/2000/svg">
<path d="M107.947 43.1739C108.998 42.9814 110.779 43.0712 111.835 43.2066C120.25 44.2851 126.094 52.4659 124.678 60.7921C123.785 66.0474 121.315 68.695 117.252 71.7349C126.23 70.791 137.834 73.3564 140.428 83.2994C141.271 86.5367 141.865 89.8602 142.576 93.1266C143.857 98.7649 145.084 104.416 146.253 110.078C146.926 113.365 147.886 116.618 148.235 119.95C148.583 123.287 146.007 127.035 142.746 127.83C143.402 132.676 143.514 137.751 143.854 142.661C144.426 150.933 145.016 159.104 145.406 167.384C146.058 167.352 146.716 167.356 147.369 167.354C147.542 167.441 147.714 167.535 147.881 167.636C150.719 169.392 148.659 172.605 145.709 172.098C143.563 171.73 138.011 173.206 137.511 170.071C137.161 167.882 139.226 167.293 140.994 167.334C140.44 162.764 140.25 156.7 139.966 151.975L138.37 128.015C132.097 126.264 132.249 120.571 130.71 115.379C129.235 110.402 127.876 104.085 125.634 99.434C125.522 100.208 125.585 101.933 125.591 102.771L125.612 108.344V128.783C126.056 129.265 126.516 129.824 126.561 130.496C126.676 132.266 126.63 134.177 126.626 135.95L126.605 146.753L126.622 154.811C126.63 157.51 127.096 159.054 125.392 161.312L125.395 161.585C125.4 164.245 124.87 166.609 122.923 168.561C119.8 171.694 114.451 171.027 110.272 171.012L110.272 163.872L110.293 161.964C109.495 161.794 109.04 161.634 108.267 161.36C108.285 164.576 108.279 167.793 108.25 171.008C106.928 171.025 105.606 171.036 104.283 171.04C101.033 171.047 98.2094 171.159 95.66 168.663C94.7171 167.74 93.6142 165.811 93.4856 164.503C93.2829 162.439 93.3661 159.902 93.3694 157.805L93.3826 145.182L93.3871 99.4876C91.5657 102.539 88.9977 112.927 87.9409 116.693C87.2311 119.222 86.7518 122.445 85.2704 124.784C84.2558 126.385 82.3799 127.51 80.5574 127.91C80.3144 130 80.3574 131.9 80.1766 133.93C79.9215 136.794 79.8425 139.672 79.6257 142.514L78.471 158.765C78.2982 161.441 78.0022 164.712 77.9937 167.356C80.0789 167.314 80.6627 167.836 81.4009 169.751C81.2159 170.179 80.8134 171.001 80.4845 171.346C79.4124 172.469 76.1058 172.016 74.578 172.113C73.34 172.19 70.9524 172.116 70.1122 171.186C69.5745 170.591 69.7269 169.462 69.76 168.681C69.8879 168.544 70.0219 168.411 70.1617 168.285C71.268 167.3 71.8577 167.264 73.2454 167.355C73.3287 165.651 73.5584 163.881 73.674 162.171L74.566 149.212C75.0139 142.505 75.3651 134.501 76.163 127.919C72.9144 126.51 70.477 123.82 70.723 120.017C70.8744 117.679 71.7029 114.925 72.2371 112.608L74.4774 102.509L77.1809 90.2332C77.6216 88.1904 78.0954 86.1544 78.554 84.1172C81.0055 73.2271 92.2867 71.0586 101.892 71.7081C101.322 71.34 100.77 70.9445 100.239 70.5231C96.9194 67.9049 94.8021 64.0535 94.3704 59.8477C93.4382 51.5515 99.6709 44.042 107.947 43.1739Z" fill="#FCFCFC"/>
<path d="M108.997 138.226C114.142 139.925 119.26 141.705 124.348 143.568C124.15 146.033 124.285 150.064 124.304 152.606C120.817 151.469 117.305 150.094 113.804 148.958C112.412 148.506 110.275 147.669 108.884 147.413C108.897 144.721 108.791 140.78 108.997 138.226Z" fill="#2976D2"/>
<path d="M109.614 130.051C111.551 129.95 122.666 129.745 123.811 130.227C124.021 130.316 124.076 130.415 124.152 130.625C124.395 131.29 124.44 140.212 124.197 140.794L123.781 140.739C120.655 139.736 117.554 138.564 114.431 137.544C112.562 136.932 110.753 136.295 108.935 135.542C108.794 134.792 108.869 131.487 109.076 130.604C109.165 130.224 109.338 130.181 109.614 130.051Z" fill="#2A77D3"/>
<path d="M108.967 149.916C112.316 150.832 116.214 152.49 119.579 153.529C120.885 153.931 123.051 154.896 124.351 155.053C124.19 156.274 124.459 158.211 124.12 159.21C124.006 159.249 123.89 159.283 123.772 159.312C122.095 159.735 112.781 159.386 110.467 159.424C110.11 159.43 109.486 159.287 109.143 159.087C108.725 157.97 108.871 151.401 108.967 149.916Z" fill="#2976D2"/>
<path d="M143.975 113.764C144.279 113.703 144.126 113.71 144.439 113.809C145.21 115.063 145.269 115.669 143.979 116.332C144.372 118.384 144.487 121.858 144.544 123.921C143.874 124.63 143.501 124.806 142.657 125.24C142.651 124.035 142.379 122.604 142.325 121.368C142.255 119.777 142.239 118.24 142.125 116.649C140.65 117.016 139.136 117.305 137.715 117.831C137.77 118.602 137.871 119.434 137.949 120.208C138.174 122.21 138.25 123.511 138.25 125.505C137.411 125.079 136.76 124.559 136.044 123.959C135.725 122.021 135.741 120.274 135.73 118.318C135.359 118.39 134.921 118.504 134.553 118.54C133.654 118.627 133.474 117.151 133.584 116.566C134.15 116.27 135.662 115.944 136.33 115.767C138.827 115.106 141.558 114.647 143.975 113.764Z" fill="#2976D2"/>
<path d="M74.366 113.644C77.9181 114.596 81.943 115.778 85.5031 116.527L84.8505 118.609C84.3232 118.544 83.7891 118.515 83.2587 118.477C83.1517 119.976 83.1564 121.812 82.8751 123.267C82.6399 124.484 81.6969 124.93 80.7334 125.504C80.7447 123.672 80.7634 122.043 80.8872 120.219C80.8866 119.735 81.0961 118.388 81.1681 117.843C80.1364 117.413 78.0187 116.953 76.8191 116.647C76.7444 118.891 76.1749 123.558 76.334 125.294C75.4387 124.881 75.0286 124.532 74.3092 123.883C74.4387 121.362 74.5306 118.717 74.8172 116.218C74.383 116.011 74.2681 115.995 73.9874 115.628C73.8877 115.219 73.8871 115.193 74.0125 114.792L74.366 113.644Z" fill="#2976D2"/>
<path d="M109.27 121.52C110.075 121.674 110.29 121.829 110.974 122.236C111.094 123.981 111.028 126.004 111.01 127.775C110.325 127.756 109.924 127.812 109.245 127.894C109.241 125.77 109.249 123.645 109.27 121.52Z" fill="#2976D2"/>
</svg>
