<svg width="80" height="130" viewBox="0 0 80 130" fill="none" xmlns="http://www.w3.org/2000/svg">
<path d="M38.2319 0.1107C39.2829 -0.0817997 41.0646 0.00807825 42.1199 0.143453C50.5351 1.22195 56.3789 9.4027 54.9632 17.729C54.0699 22.9842 51.6001 25.6318 47.5369 28.6717C56.5152 27.7278 68.1189 30.2932 70.7127 40.2362C71.5564 43.4736 72.1502 46.7971 72.8614 50.0634C74.1427 55.7017 75.3689 61.3526 76.5377 67.0152C77.2114 70.3021 78.1714 73.5552 78.5202 76.8872C78.8677 80.224 76.2927 83.9718 73.0314 84.7668C73.6877 89.6131 73.7989 94.6881 74.1389 99.5981C74.7114 107.869 75.3014 116.041 75.6914 124.321C76.3427 124.289 77.0014 124.293 77.6539 124.291C77.8277 124.378 77.9989 124.472 78.1665 124.573C81.004 126.329 78.9439 129.542 75.9939 129.034C73.8477 128.667 68.2964 130.143 67.7964 127.008C67.4464 124.819 69.5114 124.229 71.2789 124.271C70.7252 119.701 70.5352 113.637 70.2514 108.912L68.6552 84.9518C62.3827 83.2006 62.5339 77.5078 60.9952 72.3153C59.5202 67.3388 58.1614 61.0216 55.9189 56.3708C55.8077 57.1452 55.8702 58.8702 55.8764 59.708L55.8977 65.2807V85.7193C56.3414 86.2018 56.8014 86.7606 56.8464 87.4331C56.9614 89.2031 56.9152 91.1143 56.9114 92.8868L56.8902 103.689L56.9077 111.748C56.9152 114.447 57.3814 115.991 55.6777 118.249L55.6802 118.522C55.6852 121.182 55.1549 123.546 53.2084 125.498C50.0857 128.631 44.7366 127.964 40.5572 127.949L40.5571 120.809L40.5781 118.901C39.7803 118.731 39.3253 118.571 38.5527 118.297C38.5699 121.513 38.5641 124.729 38.5348 127.944C37.2128 127.962 35.8908 127.973 34.5687 127.977C31.3178 127.984 28.4946 128.096 25.9452 125.599C25.0023 124.677 23.8994 122.748 23.7708 121.439C23.5681 119.376 23.6513 116.839 23.6546 114.742L23.6723 56.4244C21.8509 59.4756 19.2829 69.864 18.2261 73.6298C17.5163 76.1585 17.0369 79.3818 15.5556 81.7203C14.5409 83.3218 12.6651 84.4468 10.8426 84.8468C10.5996 86.9368 10.6426 88.8368 10.4618 90.8668C10.2067 93.7306 10.1277 96.6093 9.91094 99.4506L8.75619 115.702C8.58344 118.378 8.28744 121.649 8.27894 124.293C10.3641 124.251 10.9479 124.773 11.6861 126.688C11.5011 127.116 11.0986 127.938 10.7697 128.283C9.69756 129.406 6.39094 128.953 4.86319 129.049C3.62519 129.127 1.23757 129.053 0.397443 128.123C-0.140307 127.528 0.0120688 126.399 0.0451938 125.618C0.173069 125.481 0.307067 125.348 0.446942 125.222C1.55319 124.237 2.14294 124.201 3.53057 124.292C3.61394 122.588 3.84357 120.818 3.9592 119.108L4.85119 106.149C5.29907 99.4418 5.65032 91.4381 6.44819 84.8556C3.19957 83.4468 0.762191 80.7568 1.00819 76.9542C1.15957 74.6156 1.98806 71.8617 2.52231 69.545L4.76256 59.4456L7.46607 47.1701C7.90682 45.1272 8.38057 43.0912 8.83919 41.0541C11.2907 30.1639 22.5719 27.9954 32.1773 28.6449C31.6074 28.2768 31.0557 27.8813 30.5239 27.46C27.2046 24.8417 25.0873 20.9903 24.6556 16.7846C23.7234 8.48833 29.9561 0.978825 38.2319 0.1107Z" fill="#0A101F"/>
<path d="M39.2826 95.1631C44.4274 96.8618 49.5449 98.6418 54.6329 100.504C54.4351 102.969 54.5702 107.001 54.5892 109.543C51.1021 108.406 47.5906 107.031 44.0896 105.894C42.6971 105.443 40.5607 104.606 39.1696 104.349C39.1823 101.658 39.0761 97.7168 39.2826 95.1631Z" fill="#2976D2"/>
<path d="M39.8989 86.9881C41.8359 86.8868 52.9514 86.6818 54.0959 87.1643C54.3059 87.2531 54.3609 87.3518 54.4376 87.5618C54.6799 88.2268 54.7254 97.1493 54.4819 97.7306L54.0662 97.6756C50.9399 96.6731 47.8397 95.5006 44.7163 94.4806C42.8468 93.8693 41.0379 93.2318 39.2198 92.4793C39.0791 91.7293 39.1543 88.4243 39.3612 87.5406C39.4502 87.1606 39.6228 87.1181 39.8989 86.9881Z" fill="#2A77D3"/>
<path d="M39.2519 106.853C42.6012 107.769 46.4993 109.427 49.8641 110.466C51.1706 110.868 53.3359 111.833 54.6364 111.989C54.4756 113.211 54.7439 115.148 54.4054 116.147C54.2909 116.186 54.1748 116.219 54.0573 116.249C52.3801 116.672 43.0664 116.323 40.7522 116.361C40.3951 116.367 39.7713 116.224 39.4282 116.024C39.0107 114.907 39.1561 108.338 39.2519 106.853Z" fill="#2976D2"/>
<path d="M74.2602 70.7012C74.564 70.6393 74.4114 70.6467 74.7239 70.7455C75.4952 71.9996 75.5539 72.6061 74.2639 73.2688C74.6577 75.3212 74.7727 78.7943 74.8289 80.8582C74.1589 81.5672 73.7864 81.743 72.9427 82.1768C72.9364 80.9716 72.6639 79.5403 72.6102 78.305C72.5402 76.7141 72.5239 75.1771 72.4102 73.5862C70.9352 73.9523 69.4214 74.2416 68.0002 74.7677C68.0552 75.5385 68.1564 76.3707 68.2339 77.1448C68.4589 79.1463 68.5352 80.448 68.5352 82.4418C67.6964 82.0156 67.0452 81.4956 66.3289 80.8956C66.0102 78.9576 66.0264 77.211 66.0152 75.2552C65.6439 75.3263 65.2064 75.4408 64.8377 75.4765C63.9389 75.5635 63.7589 74.0876 63.8689 73.5027C64.4352 73.2065 65.9477 72.8807 66.6152 72.7042C69.1127 72.0431 71.8427 71.5833 74.2602 70.7012Z" fill="#2976D2"/>
<path d="M4.65119 70.5811C8.20331 71.5332 12.2282 72.7146 15.7883 73.464L15.1357 75.5461C14.6084 75.4811 14.0743 75.4513 13.5439 75.4141C13.4369 76.9126 13.4416 78.7483 13.1603 80.2036C12.9251 81.4212 11.9821 81.8667 11.0186 82.4406C11.0299 80.6092 11.0486 78.9797 11.1724 77.156C11.1718 76.6722 11.3813 75.3243 11.4533 74.78C10.4216 74.3496 8.30394 73.8898 7.10431 73.5833C7.02956 75.8277 6.46007 80.4946 6.61919 82.2306C5.72394 81.8178 5.31382 81.4683 4.59444 80.8201C4.72394 78.299 4.81582 75.6533 5.10244 73.1548C4.66819 72.9481 4.55331 72.9318 4.27256 72.5652C4.17294 72.156 4.17231 72.1296 4.29769 71.7292L4.65119 70.5811Z" fill="#2976D2"/>
<path d="M39.5551 78.4568C40.3603 78.611 40.5751 78.7663 41.2594 79.1728C41.3787 80.9175 41.3136 82.9406 41.2948 84.7118C40.6098 84.6931 40.2091 84.7493 39.5307 84.8306C39.5261 82.7068 39.5342 80.5816 39.5551 78.4568Z" fill="#2976D2"/>
</svg>
