<svg width="78" height="135" viewBox="0 0 78 135" fill="none" xmlns="http://www.w3.org/2000/svg">
<path fill-rule="evenodd" clip-rule="evenodd" d="M47.6545 24.7713C52.4 24.737 55.9673 25.1074 59.5637 28.6756C60.8195 29.9352 61.8213 31.425 62.5149 33.0633C63.2212 34.775 64.0433 37.7594 64.6291 39.6561L68.1233 50.8865C69.4125 55.0616 70.6887 59.2405 71.9279 63.4305C72.213 64.3923 72.9282 65.3204 73.1692 66.2801C73.989 69.542 72.5241 72.2157 69.9065 74.0291C70.9488 77.7411 70.8892 79.8002 71.0998 83.6189L71.5578 91.3416L73.2903 118.728C73.5205 122.36 73.6467 126.277 73.9504 129.869C74.8977 129.856 76.0431 129.807 76.717 130.527C77.5555 131.424 77.892 133.191 76.8283 134.054C76.4247 134.381 75.9843 134.631 75.4602 134.738C73.2492 134.998 70.9368 134.812 68.7014 134.846C67.9804 134.856 66.9468 134.394 66.5041 133.796C65.7797 132.813 66.0539 131.023 67.0774 130.331C67.7944 129.846 68.6412 129.853 69.4797 129.851C69.4435 127.067 69.1823 124.173 69.0295 121.386C68.7043 115.445 68.1759 109.432 67.9016 103.495L55.8889 103.508C55.8438 108.398 56.142 113.318 56.0891 118.216C56.0685 120.113 56.2701 122.046 56.1614 123.945C56.1496 124.247 56.0962 124.238 55.9143 124.459C55.4832 124.672 55.073 124.558 54.592 124.479C54.7213 132.386 53.1063 132.7 45.3791 132.593C44.0723 132.574 42.2154 132.521 41.2043 131.475C40.3089 130.442 40.6388 125.96 40.6516 124.469C40.6173 122.079 40.4998 118.051 40.6408 115.738L40.6565 113.235C40.6075 112.69 40.6164 112.051 40.6233 111.496C40.6477 109.598 40.5468 107.659 40.636 105.767L40.6447 103.504L37.6604 103.499L37.6428 120.112C37.6438 122.852 37.7795 125.86 37.4465 128.577C37.3025 129.757 36.6573 130.687 35.8498 131.505C33.9915 133.402 31.3517 132.965 28.9602 132.996C27.5469 133.009 26.0518 132.371 25.0735 131.322C24.313 130.504 23.8142 129.477 23.6399 128.374C23.4066 126.974 23.5256 122.046 23.5266 120.266L23.5227 103.512L9.66819 103.504L8.57834 121.105C8.41385 123.676 8.02961 127.395 8.03244 129.86C9.1249 129.864 9.86378 129.848 10.7434 130.613C12.0178 131.722 11.4108 134.353 9.76975 134.662C7.69696 135.052 5.03536 134.83 2.91428 134.862C0.317719 134.901 -1.02938 132.237 0.941624 130.4C1.51745 129.838 2.81065 129.855 3.60666 129.852C3.77389 128.149 3.81875 126.447 3.91819 124.739L5.95432 92.1805C6.14232 89.1552 6.31505 86.1286 6.47092 83.1023C6.66539 79.6206 6.79629 77.4179 7.63205 74.0096C5.87107 72.8684 4.70317 71.3502 4.25998 69.2684C4.05454 68.3119 4.07959 67.3189 4.33225 66.3738C4.62522 65.2739 5.37684 64.3004 5.78537 62.9363C7.7431 56.2965 9.76951 49.677 11.8635 43.0789L13.6272 37.3826C14.3658 34.9966 14.867 32.9054 16.2541 30.7869C18.2129 27.8349 21.2648 25.782 24.7375 25.0809C26.3708 24.7496 28.155 24.7608 29.8235 24.7762C36.0176 28.6967 41.4659 28.9708 47.6545 24.7713ZM56.8098 84.1326H16.5666C9.98031 84.1258 10.8168 84.3597 10.4631 90.6727C10.3249 93.4343 10.1511 96.1943 9.94162 98.952C14.4078 98.9235 19.0938 99.0412 23.5276 98.908L23.5295 86.2186C27.0945 86.101 31.1289 86.2049 34.7444 86.2059L54.1643 86.2195C54.1653 88.8822 54.1808 91.5461 54.2102 94.2098C54.2259 95.1873 54.1795 96.4041 54.3176 97.3377C55.7416 97.1126 55.8605 97.6639 55.8928 98.9344C59.7037 99.0127 63.8095 98.9579 67.6174 98.9207C67.2236 94.9609 66.9499 89.6432 66.7961 85.6473C66.2132 84.6943 65.3786 84.2099 64.26 84.1756C61.7825 84.1011 59.2902 84.1375 56.8098 84.1326ZM38.8088 89.1941C38.4914 89.2049 38.1933 89.3486 37.9875 89.5896C37.4626 90.2039 37.6291 92.5016 37.6311 93.3748L37.6418 98.952C38.5902 98.9431 39.6115 98.9158 40.5549 98.9246C40.5774 97.3493 40.5804 95.7734 40.5617 94.198C40.5774 93.0037 40.6416 89.1316 38.8088 89.1941ZM22.9182 48.3807C22.7072 48.6097 22.5702 48.7767 22.466 49.1482C20.8571 54.8894 18.9873 60.5962 17.5334 66.3689C17.4787 66.59 17.8025 67.8425 17.7951 68.1853C17.7206 71.6323 15.1689 74.2449 11.9221 74.8689C11.4911 76.8095 11.2267 77.9029 11.0871 79.8885C13.3341 79.4252 16.8054 79.5652 19.1897 79.5652L52.4494 79.5691C56.1752 79.5682 59.919 79.5505 63.6447 79.5818C64.6195 79.5897 65.5373 79.7071 66.4826 79.9422C66.3886 78.2121 66.0133 76.5569 65.5959 74.8777C62.6355 74.1723 60.8362 72.7289 59.8879 69.782C59.456 67.9467 59.9782 67.0538 59.8244 65.5828C59.7711 65.0773 58.8298 61.6805 58.6496 61.3084C57.81 59.5758 55.6106 49.5784 54.6692 48.492C54.3185 48.5067 54.4777 48.4592 54.174 48.6502C53.9693 49.0836 54.0227 49.4694 54.0158 49.9363C53.8865 59.0774 54.1902 68.3117 54.0071 77.4471L34.0617 77.452C30.6129 77.451 26.9588 77.5117 23.5246 77.4402V58.5379C23.5248 57.3921 23.6654 49.0558 23.3596 48.6043C23.2153 48.5293 23.0658 48.4467 22.9182 48.3807Z" fill="#0B101F"/>
<path d="M7.82244 64.0006C7.98292 63.9946 8.14173 64.0019 8.30151 64.0169C9.22457 64.1038 15.2815 65.3546 15.7216 65.9818C15.8334 66.1413 15.8192 66.572 15.7708 66.7562C15.6809 67.0973 15.5467 67.2443 15.2493 67.4069L14.9598 67.5656C14.2841 67.9336 14.6264 72.5431 12.96 72.2982C11.6016 72.0983 12.1175 70.5177 12.2948 69.6175C12.4307 68.807 12.6368 67.9156 12.8061 67.1046L9.78045 66.3882C9.68278 67.4117 9.26533 72.7449 7.265 70.7787C6.71403 70.2371 7.62034 66.8838 7.75269 65.995C7.04987 65.3424 7.13637 64.6192 7.82244 64.0006Z" fill="#005BDD"/>
<path d="M68.9241 64.0349C70.086 63.9071 70.6826 64.7619 69.9185 65.8131C69.4365 66.4763 71.8827 72.2678 68.9525 70.9815C68.3216 70.7041 67.914 67.3998 67.7259 66.4112C66.7844 66.6452 65.7019 66.859 64.7447 67.0682C64.8613 67.5579 64.9514 68.1261 65.0425 68.6268C65.1973 69.3847 65.839 71.5703 65.0719 72.0503C62.9823 73.3572 63.2223 68.7378 62.6795 67.6064C62.2632 67.3975 61.8968 67.2804 61.7479 66.8054C61.6675 66.5492 61.7165 66.1574 61.8448 65.9276C62.1485 65.3834 67.9816 64.2479 68.9241 64.0349Z" fill="#005BDD"/>
<path d="M37.3126 0.0119449C45.2982 -0.309377 52.0374 5.89125 52.3817 13.8758C52.7261 21.8603 46.5446 28.6177 38.5602 28.9844C30.5451 29.3526 23.7545 23.1408 23.4091 15.1242C23.0636 7.10756 29.2947 0.334622 37.3126 0.0119449Z" fill="#0B101F"/>
<path d="M40.636 105.767C41.5765 106.091 43.0917 106.836 44.0518 107.277L50.9135 110.436C51.904 110.894 53.5293 111.709 54.4649 112.058C54.4531 114.524 54.4551 116.989 54.4737 119.454C50.0083 117.531 45.068 114.987 40.6565 113.235C40.6075 112.69 40.6164 112.051 40.6233 111.496C40.6477 109.598 40.5468 107.659 40.636 105.767Z" fill="#005BDD"/>
<path d="M40.6408 115.738C42.034 116.199 44.9384 117.611 46.356 118.27C49.0462 119.522 51.9098 120.726 54.556 122.013L54.5432 124.46L40.6516 124.469C40.6173 122.079 40.4998 118.051 40.6408 115.738Z" fill="#005BDD"/>
<path d="M40.5617 94.198L54.2102 94.2098C54.2259 95.1873 54.1795 96.4041 54.3176 97.3377L54.3062 98.9427C49.8339 98.933 44.989 99.0245 40.5549 98.9246C40.5774 97.3493 40.5804 95.7734 40.5617 94.198Z" fill="#005BDD"/>
<path d="M41.4262 103.518C42.79 103.449 44.6445 103.491 46.0484 103.491L54.3081 103.492C54.317 105.51 54.3375 107.528 54.3689 109.544C52.8161 108.946 50.2816 107.684 48.7043 106.942C46.4109 105.864 43.6413 104.673 41.4262 103.518Z" fill="#005BDD"/>
</svg>
