<svg width="201" height="201" viewBox="0 0 201 201" fill="none" xmlns="http://www.w3.org/2000/svg">
<path d="M109.259 51.7713C114.005 51.737 117.572 52.1074 121.168 55.6756C122.424 56.9352 123.426 58.425 124.119 60.0633C124.826 61.775 125.648 64.7594 126.234 66.6561L129.728 77.8865C131.017 82.0616 132.293 86.2405 133.533 90.4305C133.818 91.3923 134.533 92.3204 134.774 93.2801C135.594 96.542 134.129 99.2158 131.511 101.029C132.553 104.741 132.494 106.8 132.704 110.619L133.162 118.342L134.895 145.728C135.125 149.36 135.251 153.277 135.555 156.869C136.502 156.856 137.648 156.807 138.322 157.527C139.16 158.424 139.497 160.191 138.433 161.054C138.029 161.381 137.589 161.631 137.065 161.738C134.854 161.998 132.541 161.812 130.306 161.846C129.585 161.856 128.551 161.394 128.109 160.796C127.384 159.813 127.658 158.023 128.682 157.331C129.399 156.846 130.246 156.853 131.084 156.851C131.048 154.067 130.787 151.173 130.634 148.386C130.309 142.445 129.78 136.432 129.506 130.495L117.493 130.508C117.448 135.398 117.747 140.318 117.694 145.216C117.673 147.113 117.875 149.046 117.766 150.945C117.754 151.247 117.701 151.238 117.519 151.459C117.088 151.672 116.678 151.558 116.197 151.479C116.326 159.386 114.711 159.7 106.984 159.593C105.677 159.574 103.82 159.521 102.809 158.475C101.913 157.442 102.243 152.96 102.256 151.469C102.222 149.079 102.104 145.051 102.245 142.738L102.261 140.235C102.212 139.69 102.221 139.051 102.228 138.496C102.252 136.598 102.151 134.659 102.241 132.767L102.249 130.504L99.265 130.499L99.2474 147.112C99.2484 149.852 99.3841 152.86 99.0511 155.577C98.9071 156.757 98.2619 157.687 97.4544 158.505C95.5961 160.402 92.9563 159.965 90.5648 159.996C89.1515 160.009 87.6564 159.371 86.678 158.322C85.9176 157.504 85.4188 156.477 85.2444 155.374C85.0111 153.974 85.1302 149.046 85.1312 147.266L85.1273 130.512L71.2728 130.504L70.1829 148.105C70.0184 150.676 69.6342 154.395 69.637 156.86C70.7295 156.864 71.4684 156.848 72.348 157.613C73.6223 158.722 73.0154 161.353 71.3743 161.662C69.3015 162.052 66.6399 161.83 64.5189 161.862C61.9223 161.901 60.5752 159.237 62.5462 157.4C63.122 156.838 64.4152 156.855 65.2112 156.852C65.3785 155.149 65.4233 153.447 65.5228 151.739L67.5589 119.18C67.7469 116.155 67.9196 113.129 68.0755 110.102C68.27 106.621 68.4009 104.418 69.2366 101.01C67.4757 99.8684 66.3078 98.3502 65.8646 96.2684C65.6591 95.3119 65.6842 94.3189 65.9368 93.3738C66.2298 92.2739 66.9814 91.3004 67.39 89.9363C69.3477 83.2965 71.3741 76.677 73.4681 70.0789L75.2318 64.3826C75.9704 61.9966 76.4716 59.9055 77.8587 57.7869C79.8175 54.8349 82.8694 52.782 86.3421 52.0809C87.9754 51.7496 89.7596 51.7608 91.428 51.7762C97.6222 55.6967 103.07 55.9708 109.259 51.7713ZM118.414 111.133H78.1712C71.5849 111.126 72.4213 111.36 72.0677 117.673C71.9295 120.434 71.7557 123.194 71.5462 125.952C76.0124 125.924 80.6984 126.041 85.1321 125.908L85.1341 113.219C88.699 113.101 92.7334 113.205 96.3489 113.206L115.769 113.22C115.77 115.882 115.785 118.546 115.815 121.21C115.83 122.187 115.784 123.404 115.922 124.338C117.346 124.113 117.465 124.664 117.497 125.934C121.308 126.013 125.414 125.958 129.222 125.921C128.828 121.961 128.555 116.643 128.401 112.647C127.818 111.694 126.983 111.21 125.865 111.176C123.387 111.101 120.895 111.138 118.414 111.133ZM100.413 116.194C100.096 116.205 99.7978 116.349 99.5921 116.59C99.0671 117.204 99.2336 119.502 99.2357 120.375L99.2464 125.952C100.195 125.943 101.216 125.916 102.159 125.925C102.182 124.349 102.185 122.773 102.166 121.198C102.182 120.004 102.246 116.132 100.413 116.194ZM84.5228 75.3807C84.3117 75.6097 84.1747 75.7767 84.0706 76.1482C82.4617 81.8894 80.5919 87.5962 79.138 93.3689C79.0833 93.59 79.4071 94.8425 79.3997 95.1854C79.3252 98.6323 76.7735 101.245 73.5267 101.869C73.0957 103.81 72.8313 104.903 72.6917 106.888C74.9386 106.425 78.41 106.565 80.7943 106.565L114.054 106.569C117.78 106.568 121.524 106.55 125.249 106.582C126.224 106.59 127.142 106.707 128.087 106.942C127.993 105.212 127.618 103.557 127.201 101.878C124.24 101.172 122.441 99.7289 121.492 96.782C121.061 94.9467 121.583 94.0538 121.429 92.5828C121.376 92.0773 120.434 88.6805 120.254 88.3084C119.415 86.5758 117.215 76.5784 116.274 75.492C115.923 75.5067 116.082 75.4592 115.779 75.6502C115.574 76.0836 115.627 76.4694 115.62 76.9363C115.491 86.0774 115.795 95.3117 115.612 104.447L95.6663 104.452C92.2175 104.451 88.5634 104.512 85.1292 104.44V85.5379C85.1294 84.3921 85.27 76.0558 84.9642 75.6043C84.8199 75.5293 84.6704 75.4467 84.5228 75.3807Z" fill="#FEFEFE"/>
<path d="M69.427 91.0006C69.5875 90.9946 69.7463 91.0019 69.9061 91.0169C70.8292 91.1038 76.8861 92.3546 77.3261 92.9819C77.438 93.1414 77.4238 93.572 77.3753 93.7562C77.2855 94.0973 77.1513 94.2443 76.8538 94.4069L76.5643 94.5656C75.8886 94.9336 76.231 99.5431 74.5646 99.2982C73.2062 99.0983 73.7221 97.5177 73.8994 96.6175C74.0353 95.807 74.2414 94.9156 74.4107 94.1046L71.385 93.3882C71.2874 94.4117 70.8699 99.7449 68.8696 97.7787C68.3186 97.2371 69.2249 93.8838 69.3573 92.995C68.6544 92.3424 68.7409 91.6192 69.427 91.0006Z" fill="#005BDD"/>
<path d="M130.529 91.0349C131.691 90.9071 132.287 91.7619 131.523 92.8131C131.041 93.4763 133.487 99.2678 130.557 97.9815C129.926 97.7041 129.519 94.3997 129.33 93.4112C128.389 93.6452 127.306 93.859 126.349 94.0682C126.466 94.5579 126.556 95.1261 126.647 95.6268C126.802 96.3847 127.444 98.5703 126.677 99.0503C124.587 100.357 124.827 95.7378 124.284 94.6064C123.868 94.3975 123.501 94.2804 123.352 93.8054C123.272 93.5492 123.321 93.1574 123.449 92.9276C123.753 92.3834 129.586 91.2479 130.529 91.0349Z" fill="#005BDD"/>
<path d="M98.9172 27.0119C106.903 26.6906 113.642 32.8913 113.986 40.8758C114.331 48.8603 108.149 55.6177 100.165 55.9844C92.1497 56.3526 85.3591 50.1408 85.0137 42.1242C84.6682 34.1076 90.8993 27.3346 98.9172 27.0119Z" fill="#FEFEFE"/>
<path d="M102.24 132.767C103.181 133.091 104.696 133.836 105.656 134.277L112.518 137.436C113.509 137.894 115.134 138.709 116.069 139.058C116.058 141.524 116.06 143.989 116.078 146.454C111.613 144.531 106.672 141.987 102.261 140.235C102.212 139.69 102.221 139.051 102.227 138.495C102.252 136.598 102.151 134.659 102.24 132.767Z" fill="#005BDD"/>
<path d="M102.245 142.738C103.638 143.198 106.543 144.611 107.961 145.27C110.651 146.522 113.514 147.726 116.161 149.013L116.148 151.46L102.256 151.469C102.222 149.079 102.104 145.051 102.245 142.738Z" fill="#005BDD"/>
<path d="M102.166 121.198L115.815 121.21C115.83 122.188 115.783 123.404 115.922 124.338L115.911 125.943C111.438 125.933 106.593 126.024 102.159 125.924C102.181 124.349 102.184 122.773 102.166 121.198Z" fill="#005BDD"/>
<path d="M103.031 130.518C104.395 130.449 106.249 130.491 107.653 130.491L115.913 130.492C115.922 132.51 115.942 134.528 115.973 136.544C114.421 135.946 111.886 134.684 110.309 133.942C108.015 132.864 105.246 131.673 103.031 130.518Z" fill="#005BDD"/>
</svg>
